<svg xmlns="http://www.w3.org/2000/svg" xmlns:xlink="http://www.w3.org/1999/xlink" width="512" height="512" preserveAspectRatio="xMidYMid meet" viewBox="0 0 512 512" style="-ms-transform: rotate(360deg); -webkit-transform: rotate(360deg); transform: rotate(360deg);"><path fill="#0096D1" d="M46.178 240.372l-31.437 8.23C4.34 251.325.958 272.818 7.186 296.608s19.708 40.869 30.109 38.146l31.437-8.23l-22.554-86.152z"/><path fill="#597B91" d="M471.171 293.387c-2.256 0-4.528-.718-6.454-2.2c-4.634-3.569-5.498-10.219-1.93-14.854c23.755-30.848 31.096-71.443 19.636-108.591c-11.461-37.148-40.396-66.552-77.4-78.655c-5.56-1.818-8.593-7.799-6.774-13.359s7.806-8.59 13.358-6.774c43.532 14.238 77.572 48.834 91.057 92.544c13.484 43.709 4.852 91.47-23.093 127.759a10.577 10.577 0 0 1-8.4 4.13zm-30.276-14.134c22.862-29.691 29.926-68.767 18.893-104.528c-11.032-35.762-38.883-64.067-74.498-75.717c-5.562-1.816-11.54 1.215-13.359 6.774c-1.818 5.56 1.215 11.54 6.773 13.359c29.09 9.515 51.835 32.628 60.844 61.828c9.008 29.199 3.238 61.11-15.436 85.36c-3.568 4.635-2.704 11.285 1.93 14.854a10.549 10.549 0 0 0 6.454 2.2c3.173 0 6.313-1.421 8.399-4.13zm-39.023-17.569c16.004-20.782 20.947-48.136 13.225-73.172c-7.724-25.035-27.219-44.85-52.15-53.004c-5.554-1.815-11.539 1.214-13.358 6.774c-1.818 5.56 1.215 11.541 6.774 13.359c18.404 6.02 32.795 20.642 38.494 39.115c5.698 18.474 2.047 38.663-9.768 54.005c-3.568 4.634-2.705 11.285 1.93 14.853a10.549 10.549 0 0 0 6.454 2.2a10.578 10.578 0 0 0 8.399-4.13z"/><path fill="#132028" d="M354.989 209.057c-17.28-66.005-54.68-113.388-83.535-105.834c-7.863 2.058-14.276 7.991-19.102 16.858c-25.422 34.003-86.08 65.4-128.677 84.409c-1.64-.221-3.25-.158-4.807.25c-2.788.73-5.199 2.464-7.219 5.005C91.697 218.278 78 223.232 78 223.232l23.169 88.502l3.367 12.863s14.684-1.795 36.679-3.283c2.866 1.092 5.677 1.35 8.34.653c1.115-.292 2.164-.76 3.159-1.358c45.365-2.487 112.14-2.671 152.021 13.268c10.013 7.592 20.088 10.781 29.293 8.371c28.856-7.555 38.241-67.186 20.961-133.191z"/><path fill="#626566" d="M345.792 211.465c14.238 54.386 6.506 103.52-17.27 109.745s-54.593-32.818-68.831-87.204c-14.238-54.386-6.506-103.52 17.27-109.745c23.776-6.224 54.593 32.818 68.831 87.204z"/><path fill="#BCBCBC" d="M256.055 182.853c-1.281.335-2.438 1.015-3.471 1.996c.268 15.042 2.571 31.832 7.106 49.157s10.756 33.09 17.893 46.334c1.381.349 2.723.374 4.003.039c10.122-2.65 12.612-26.63 5.561-53.561c-7.049-26.931-20.97-46.615-31.092-43.965z"/><path fill="#626566" d="M174.604 406.391c-.295-3.732-.915-7.928-1.661-12.665c-.786-4.729-1.81-10.021-3.457-15.623a116.473 116.473 0 0 0-2.9-8.56a108.541 108.541 0 0 0-3.811-8.634a111.659 111.659 0 0 0-4.693-8.33c-.404-.67-.936-1.454-1.405-2.174l-1.323-1.973l-2.226-3.212c-2.512-3.59-4.935-7.406-7.51-11.366c-1.927-2.991-3.906-6.086-6.052-9.271l9.991-2.616c-14.152 3.705-32.494-19.534-40.969-51.905c-8.475-32.371-3.872-61.616 10.28-65.321l-30.383 7.954l-42.776 11.198c-14.152 3.705-18.754 32.95-10.28 65.321c8.475 32.371 26.817 55.61 40.969 51.905l1.247-.327a24.568 24.568 0 0 0 3.231-.366l.447-.082l.548-.1c.211-.038.532-.103.552-.08c.093.002.194-.006.305-.014l.549-.048c.411-.037.847-.053 1.287-.057c.867-.005 1.681.057 2.093.215c.44.191.401.198.719.425c.169.136.451.325.92.741c.473.376 1.128.982 1.912 1.81c1.589 1.64 3.685 4.283 6.049 7.512c2.363 3.246 5 7.078 7.896 11.162a306.034 306.034 0 0 0 9.456 12.743l.649.807l.324.403l.081.101c.218.292-.251-.341-.19-.259l.036.046l.142.183l1.137 1.462l1.462 1.942a64.039 64.039 0 0 1 2.799 4.293a67.435 67.435 0 0 1 2.376 4.421a68.602 68.602 0 0 1 1.994 4.665a111.672 111.672 0 0 1 1.699 4.97a120.76 120.76 0 0 1 1.47 5.262c.938 3.585 1.641 7.308 2.574 10.882c1.838 7.188 4.551 13.631 7.025 17.939c1.22 2.163 2.356 3.824 3.193 4.932l.988 1.253l.364.421a17.937 17.937 0 0 0 8.223 5.371c9.384 2.89 19.333-2.375 22.223-11.759l.53-1.721l.141-.458l.34-1.31c.27-1.137.603-2.776.903-4.837c.567-4.125 1.085-9.839.512-17.271z"/><rect x="0" y="0" width="512" height="512" fill="rgba(0, 0, 0, 0)" /></svg>